<svg width="64" height="64" viewBox="0 0 64 64" xmlns="http://www.w3.org/2000/svg">
  <!-- FlowLingo Mascot Icon - Simplified Owl for favicon/app icon -->
  
  <!-- Gradient definitions -->
  <defs>
    <linearGradient id="iconBgGradient" x1="0%" y1="0%" x2="100%" y2="100%">
      <stop offset="0%" style="stop-color:#8b5cf6;stop-opacity:1" />
      <stop offset="50%" style="stop-color:#6366f1;stop-opacity:1" />
      <stop offset="100%" style="stop-color:#3b82f6;stop-opacity:1" />
    </linearGradient>
    <linearGradient id="owlGradient" x1="0%" y1="0%" x2="0%" y2="100%">
      <stop offset="0%" style="stop-color:#a78bfa;stop-opacity:1" />
      <stop offset="100%" style="stop-color:#8b5cf6;stop-opacity:1" />
    </linearGradient>
  </defs>
  
  <!-- Background -->
  <rect width="64" height="64" rx="16" fill="url(#iconBgGradient)"/>
  
  <!-- Simplified Owl Face -->
  <g transform="translate(32, 32)">
    <!-- Body/Head combined -->
    <ellipse cx="0" cy="3" rx="18" ry="20" fill="#fbbf24" opacity="0.95"/>
    
    <!-- Belly highlight -->
    <ellipse cx="0" cy="6" rx="12" ry="14" fill="#fef3c7"/>
    
    <!-- Ear tufts -->
    <path d="M -12 -15 L -10 -20 L -8 -15 Z" fill="#f59e0b" opacity="0.9"/>
    <path d="M 12 -15 L 10 -20 L 8 -15 Z" fill="#f59e0b" opacity="0.9"/>
    
    <!-- Eyes -->
    <circle cx="-6" cy="-2" r="6" fill="#1f2937"/>
    <circle cx="6" cy="-2" r="6" fill="#1f2937"/>
    
    <!-- Eye shine -->
    <circle cx="-5" cy="-3" r="2" fill="white"/>
    <circle cx="7" cy="-3" r="2" fill="white"/>
    
    <!-- Beak -->
    <path d="M 0 2 L -2 5 L 0 6 L 2 5 Z" fill="#ea580c"/>
    
    <!-- Wing hints -->
    <ellipse cx="-11" cy="5" rx="4" ry="8" fill="#fed7aa" transform="rotate(-15 -11 5)"/>
    <ellipse cx="11" cy="5" rx="4" ry="8" fill="#fed7aa" transform="rotate(15 11 5)"/>
  </g>
</svg>